<?xml version="1.0" encoding="UTF-8" standalone="no"?>
<!DOCTYPE svg PUBLIC "-//W3C//DTD SVG 1.1//EN" "http://www.w3.org/Graphics/SVG/1.1/DTD/svg11.dtd">
<svg width="100%" height="100%" viewBox="0 0 72 72" version="1.1" xmlns="http://www.w3.org/2000/svg" xmlns:xlink="http://www.w3.org/1999/xlink" xml:space="preserve" xmlns:serif="http://www.serif.com/" style="fill-rule:evenodd;clip-rule:evenodd;stroke-linejoin:round;stroke-miterlimit:2;">
    <g id="g1396" transform="matrix(1.33333,0,0,-1.33333,27.408,33.1787)">
        <path id="path1398" d="M0,0C-0.23,-0.708 0.157,-1.469 0.866,-1.699C1.574,-1.929 2.335,-1.542 2.565,-0.833C2.795,-0.125 2.407,0.636 1.699,0.866C0.991,1.096 0.23,0.708 0,0M2.449,-7.538C3.052,-7.975 3.895,-7.842 4.333,-7.239C4.77,-6.637 4.637,-5.794 4.034,-5.356C3.432,-4.918 2.589,-5.052 2.151,-5.654C1.713,-6.257 1.847,-7.1 2.449,-7.538M10.375,-7.538C10.977,-7.1 11.111,-6.257 10.673,-5.654C10.235,-5.052 9.392,-4.918 8.79,-5.356C8.187,-5.794 8.054,-6.637 8.491,-7.239C8.929,-7.842 9.772,-7.975 10.375,-7.538M12.824,0C12.594,0.708 11.833,1.096 11.125,0.866C10.417,0.636 10.029,-0.125 10.259,-0.833C10.489,-1.542 11.25,-1.929 11.958,-1.699C12.667,-1.469 13.054,-0.708 12.824,0M6.412,4.659C5.667,4.659 5.064,4.055 5.064,3.31C5.064,2.565 5.667,1.962 6.412,1.962C7.157,1.962 7.76,2.565 7.76,3.31C7.76,4.055 7.157,4.659 6.412,4.659M-14.677,6.929C-15.756,7.28 -16.915,6.689 -17.266,5.61C-17.617,4.531 -17.026,3.372 -15.947,3.021C-15.119,2.752 -14.012,3.263 -12.939,3.582C-12.453,3.727 -12.265,4.304 -12.573,4.708C-13.254,5.597 -13.849,6.66 -14.677,6.929M3.678,8.453L4.133,14.418C4.363,17.425 1.781,19.874 -1.214,19.517C-3.411,19.256 -5.573,18.445 -7.491,17.052C-9.408,15.659 -10.847,13.852 -11.775,11.844C-13.04,9.106 -11.508,5.894 -8.578,5.183L-2.764,3.773C0.367,3.013 3.433,5.241 3.678,8.453M-8.676,-19.355C-9.344,-20.273 -9.14,-21.558 -8.222,-22.225C-7.304,-22.892 -6.019,-22.689 -5.352,-21.771C-4.84,-21.067 -4.984,-19.856 -4.956,-18.737C-4.943,-18.229 -5.435,-17.872 -5.913,-18.041C-6.969,-18.414 -8.165,-18.651 -8.676,-19.355M-4.454,-1.428L-9.986,0.849C-12.774,1.996 -15.902,0.297 -16.488,-2.661C-16.918,-4.831 -16.815,-7.138 -16.083,-9.392C-15.351,-11.647 -14.077,-13.573 -12.454,-15.077C-10.241,-17.125 -6.712,-16.661 -5.131,-14.094L-1.993,-9.001C-0.303,-6.258 -1.474,-2.654 -4.454,-1.428M18.176,-21.771C18.843,-22.689 20.128,-22.892 21.046,-22.225C21.964,-21.558 22.167,-20.273 21.5,-19.355C20.989,-18.651 19.793,-18.414 18.737,-18.041C18.259,-17.872 17.767,-18.229 17.78,-18.737C17.808,-19.856 17.664,-21.067 18.176,-21.771M2.431,-12.215L-1.444,-16.773C-3.397,-19.07 -2.748,-22.57 -0.115,-24.041C1.816,-25.12 4.042,-25.736 6.412,-25.736C8.782,-25.736 11.008,-25.12 12.94,-24.041C15.572,-22.57 16.221,-19.07 14.268,-16.773L10.394,-12.215C8.307,-9.76 4.517,-9.76 2.431,-12.215M28.771,3.021C29.85,3.372 30.441,4.531 30.09,5.61C29.739,6.689 28.58,7.28 27.501,6.929C26.673,6.66 26.078,5.597 25.397,4.708C25.089,4.304 25.277,3.727 25.763,3.582C26.836,3.263 27.943,2.752 28.771,3.021M14.817,-9.001L17.955,-14.094C19.536,-16.661 23.065,-17.125 25.278,-15.077C26.901,-13.573 28.174,-11.646 28.907,-9.392C29.639,-7.138 29.742,-4.831 29.312,-2.66C28.726,0.298 25.598,1.996 22.81,0.849L17.278,-1.427C14.298,-2.653 13.127,-6.257 14.817,-9.001M8.467,20.759C8.467,21.893 7.547,22.813 6.412,22.813C5.277,22.813 4.357,21.893 4.357,20.759C4.357,19.888 5.185,18.993 5.82,18.071C6.108,17.653 6.716,17.653 7.004,18.071C7.639,18.993 8.467,19.888 8.467,20.759M15.588,3.773L21.401,5.183C24.332,5.894 25.864,9.106 24.599,11.844C23.671,13.853 22.232,15.659 20.315,17.052C18.397,18.445 16.234,19.256 14.037,19.517C11.043,19.874 8.461,17.425 8.691,14.418L9.146,8.453C9.391,5.241 12.457,3.013 15.588,3.773M33.38,-2.083C33.38,-16.977 21.306,-29.051 6.412,-29.051C-8.482,-29.051 -20.556,-16.977 -20.556,-2.083C-20.556,12.811 -8.482,24.884 6.412,24.884C21.306,24.884 33.38,12.811 33.38,-2.083" style="fill:rgb(240,240,240);fill-rule:nonzero;"/>
    </g>
</svg>
