<?xml version="1.0" encoding="UTF-8" standalone="no"?>
<!DOCTYPE svg PUBLIC "-//W3C//DTD SVG 1.1//EN" "http://www.w3.org/Graphics/SVG/1.1/DTD/svg11.dtd">
<svg width="100%" height="100%" viewBox="0 0 184 184" version="1.1" xmlns="http://www.w3.org/2000/svg" xmlns:xlink="http://www.w3.org/1999/xlink" xml:space="preserve" xmlns:serif="http://www.serif.com/" style="fill-rule:evenodd;clip-rule:evenodd;stroke-linejoin:round;stroke-miterlimit:2;">
    <rect x="0" y="0" width="183.029" height="183.029" style="fill:rgb(231,232,233);"/>
    <g transform="matrix(4.16667,0,0,4.16667,-1248.3,-67.0417)">
        <path d="M299.592,52.024L299.592,60.017L306.588,60.017C303.189,58.082 300.788,55.141 299.592,52.024Z" style="fill:rgb(244,120,54);fill-rule:nonzero;"/>
    </g>
    <g transform="matrix(4.16667,0,0,4.16667,-1248.3,-67.0417)">
        <path d="M328.953,43.689C328.944,36.304 323.016,29.194 314.108,28.886C307.796,28.668 302.885,30.983 299.592,34.403L299.592,42.113C301.831,35.644 308.002,32.677 313.172,32.729C319.631,32.794 324.614,37.665 324.643,43.172C324.67,48.435 322.465,52.31 316.515,53.265C313.27,53.786 308.192,51.882 308.418,46.981C308.535,44.453 310.503,43.026 312.759,43.129C310.552,46.086 313.474,48.254 315.54,47.812C318.098,47.266 319.14,44.994 319.14,43.233C319.14,41.375 317.389,38.372 313.042,38.475C307.664,38.603 304.28,42.472 304.166,47.255C304.022,53.278 309.656,57.237 315.438,57.309C323.928,57.414 328.964,51.845 328.953,43.689Z" style="fill:rgb(244,120,54);fill-rule:nonzero;"/>
    </g>
    <g transform="matrix(4.16667,0,0,4.16667,-1248.3,-67.0417)">
        <path d="M299.592,16.09L299.592,28.728C303.369,25.828 308.286,23.953 314.108,23.956C326.572,23.964 334.485,32.672 334.482,43.659C334.479,51.292 330.917,57.031 325.34,60.017L343.519,60.017L343.519,16.09L299.592,16.09Z" style="fill:rgb(244,120,54);fill-rule:nonzero;"/>
    </g>
</svg>
